<svg width="100" height="22" viewBox="0 0 100 22" fill="none" xmlns="http://www.w3.org/2000/svg">
<path fill-rule="evenodd" clip-rule="evenodd" d="M51.99 9.47003C52.8909 9.35677 53.7894 9.69895 54.4978 10.2387C54.5044 9.54003 54.4924 8.84111 54.5044 8.14306C54.3078 8.02806 54.0963 7.9435 53.8778 7.88263C52.818 7.58371 51.6743 7.57154 50.6141 7.87284C49.6408 8.15285 48.7478 8.74872 48.1767 9.59047C47.4952 10.577 47.2543 11.8094 47.3078 12.9909C47.3608 14.1277 47.81 15.2618 48.6373 16.0575C49.3987 16.7953 50.4478 17.1927 51.4996 17.2481C52.5276 17.2986 53.6044 17.1612 54.5026 16.6277C54.4946 15.9662 54.5039 15.3044 54.4978 14.6429C53.9189 15.0651 53.2428 15.3677 52.5265 15.4501C51.8015 15.5047 51.025 15.3307 50.4711 14.8394C49.9378 14.3859 49.6541 13.7027 49.5832 13.0183C49.4887 12.1442 49.6156 11.1953 50.1654 10.4807C50.5932 9.9046 51.275 9.5346 51.99 9.47003ZM44.568 3.98933C43.9577 4.05868 43.4373 4.61195 43.4538 5.23282C43.4282 5.82261 43.9036 6.35152 44.4741 6.45392C45.0238 6.5737 45.6545 6.34174 45.9365 5.84261C46.1915 5.40021 46.1282 4.79738 45.7838 4.4189C45.4904 4.07325 45.0108 3.92237 44.568 3.98933ZM38.5233 4.26803C37.2538 7.42045 35.9559 10.5603 34.6766 13.7083C34.4098 13.0831 34.172 12.4459 33.9177 11.8161C32.922 9.29677 31.92 6.78001 30.9257 4.26085H27.7304C27.7291 8.52133 27.7298 12.782 27.7304 17.0427C28.4272 17.0421 29.1246 17.0438 29.822 17.0421C29.8202 15.1346 29.822 13.227 29.8215 11.3194C29.8289 9.94199 29.8063 8.56329 29.8331 7.1861C29.8726 7.24849 29.9094 7.31371 29.9435 7.38088C31.2468 10.6011 32.5403 13.8264 33.85 17.0444C34.3766 17.036 34.9031 17.0536 35.4292 17.0347C36.6916 13.8138 37.9855 10.6048 39.2553 7.38675C39.289 7.31632 39.3275 7.24806 39.3707 7.1824C39.3805 7.32349 39.3853 7.4648 39.3842 7.6061C39.3801 10.7505 39.3886 13.8942 39.3807 17.0379C40.1194 17.0484 40.8584 17.0403 41.5979 17.0423C41.5973 12.7822 41.5962 8.5222 41.5986 4.26216C40.5729 4.26411 39.5477 4.25172 38.5233 4.26803ZM59.4172 8.02198C58.8664 8.33328 58.5166 8.88698 58.2818 9.45742C58.2837 8.93264 58.2805 8.40872 58.2837 7.88458C57.5607 7.88111 56.8376 7.87741 56.1144 7.88654C56.1187 10.9385 56.1144 13.9909 56.1163 17.0427H58.2824C58.2829 15.5825 58.2824 14.1222 58.2824 12.662C58.2646 12.0279 58.317 11.3718 58.5953 10.7918C58.8514 10.2437 59.3455 9.76612 59.9692 9.69547C60.4805 9.64373 61.0209 9.76351 61.4542 10.0437C61.4559 9.31264 61.4529 8.58176 61.4559 7.85067C60.7942 7.62849 60.0235 7.65871 59.4172 8.02198ZM43.6534 7.88436C43.6554 10.9374 43.653 13.9901 43.6547 17.0425H45.8358C45.8388 13.9912 45.831 10.9396 45.8395 7.88828C45.111 7.87437 44.3819 7.88154 43.6534 7.88436ZM76.6283 12.0492C75.9826 11.6766 75.2395 11.5003 74.6167 11.0844C74.2524 10.8535 74.1495 10.3483 74.2982 9.96308C74.4854 9.57373 74.9369 9.40003 75.3476 9.38438C76.1628 9.35568 76.9833 9.60351 77.655 10.0644C77.6543 9.39286 77.6557 8.72155 77.6543 8.04959C76.6928 7.6861 75.6295 7.55545 74.6135 7.73371C73.7552 7.88632 72.9126 8.33133 72.4273 9.07329C72.0028 9.71004 71.948 10.5309 72.1236 11.2596C72.2421 11.7537 72.5447 12.192 72.9443 12.5031C73.5128 12.9383 74.1932 13.1811 74.8406 13.4716C75.1854 13.6335 75.5509 13.7985 75.7998 14.0977C76.0659 14.4864 75.9852 15.1212 75.5372 15.3431C75.0695 15.567 74.5232 15.5633 74.0211 15.482C73.3 15.3579 72.6184 15.0516 72.0276 14.6238C72.0197 15.3299 72.0271 16.036 72.0241 16.7425C72.726 17.0542 73.4939 17.2044 74.2576 17.254C75.3332 17.2942 76.5028 17.0847 77.3148 16.3275C78.1654 15.5777 78.3702 14.2488 77.8865 13.2433C77.6296 12.7064 77.1365 12.3337 76.6283 12.0492ZM86.272 8.15437C85.2714 7.65023 84.1074 7.57675 83.0111 7.71241C82.127 7.82567 81.2583 8.16046 80.5833 8.75133C79.7596 9.45938 79.2763 10.5 79.1341 11.5646C78.9987 12.629 79.0446 13.7503 79.4796 14.7466C79.897 15.7242 80.7205 16.5179 81.7116 16.9068C82.6894 17.2912 83.7768 17.334 84.8059 17.1679C85.8585 16.9947 86.8555 16.4425 87.507 15.5927C88.2034 14.7151 88.5027 13.5792 88.5007 12.4727C88.516 11.732 88.4236 10.9809 88.1592 10.285C87.8212 9.3759 87.1447 8.58959 86.272 8.15437ZM86.1775 13.3907C86.0931 13.8729 85.9262 14.3536 85.6096 14.7353C85.2903 15.1188 84.8157 15.3525 84.3257 15.4242C83.7998 15.5027 83.2459 15.4651 82.7542 15.2538C82.2235 15.0299 81.8122 14.5716 81.5957 14.0444C81.335 13.4164 81.2831 12.7205 81.335 12.0488C81.385 11.3979 81.57 10.7303 82.0009 10.2244C82.394 9.75221 82.9966 9.49112 83.6044 9.45699C84.2248 9.41395 84.8875 9.55699 85.3646 9.97504C85.8044 10.3392 86.0481 10.8844 86.1596 11.4333C86.2849 12.077 86.2836 12.7433 86.1775 13.3907ZM68.6449 8.08545C67.6664 7.6411 66.554 7.58154 65.4997 7.71523C64.3923 7.8548 63.3142 8.37437 62.6114 9.25525C61.9694 10.0416 61.657 11.052 61.5975 12.0544C61.5088 13.2362 61.7066 14.4896 62.402 15.4757C62.9947 16.3266 63.9297 16.9114 64.9403 17.1271C65.7847 17.304 66.6679 17.3047 67.5125 17.1294C68.5004 16.9268 69.4228 16.3816 70.0349 15.5768C70.6328 14.8192 70.933 13.8633 71.0006 12.9096C71.0695 11.9327 70.9706 10.9209 70.5636 10.0203C70.1823 9.17416 69.4943 8.46763 68.6449 8.08545ZM68.4417 14.2251C68.2317 14.6962 67.8475 15.0942 67.3623 15.2829C66.7949 15.5003 66.1573 15.5131 65.5716 15.3614C64.9755 15.2051 64.4699 14.7753 64.1947 14.2279C63.8405 13.5233 63.7877 12.7083 63.8607 11.9353C63.9275 11.2322 64.1727 10.5092 64.7094 10.024C65.099 9.66134 65.6297 9.48416 66.1549 9.45481C66.8149 9.41177 67.518 9.59786 67.9923 10.0768C68.5001 10.5748 68.6964 11.297 68.7508 11.9861C68.7901 12.7405 68.7588 13.5264 68.4417 14.2251ZM100 9.66134V7.88132C99.2752 7.88393 98.5502 7.87589 97.826 7.88611C97.8095 6.97132 97.8241 6.05652 97.818 5.14239C97.0932 5.36021 96.3728 5.59217 95.6441 5.79913C95.6267 6.49305 95.643 7.18762 95.6349 7.88132C94.5636 7.88089 93.4923 7.88263 92.4208 7.88023C92.4345 7.33349 92.3832 6.78283 92.4617 6.23913C92.5269 5.81065 92.7758 5.38239 93.1945 5.21651C93.7223 5.00064 94.3123 5.14412 94.8136 5.36456C94.8106 4.73825 94.8184 4.11194 94.8093 3.48628C93.7541 3.1965 92.5438 3.25324 91.6073 3.86129C91.0034 4.24694 90.5651 4.86434 90.3682 5.54848C90.1353 6.30631 90.254 7.10675 90.2169 7.88436C89.7086 7.88089 89.201 7.87589 88.694 7.88763C88.6992 8.47307 88.6973 9.05873 88.6953 9.64351C89.2047 9.65395 89.7145 9.64155 90.224 9.65155C90.2197 12.1153 90.2229 14.5786 90.2229 17.0425H92.4199C92.4199 14.5779 92.4193 12.1133 92.4203 9.64895C93.4919 9.64721 94.5638 9.64764 95.636 9.64829C95.6391 11.2194 95.6328 12.7896 95.6384 14.3601C95.6482 15.0914 95.7732 15.8738 96.2589 16.4512C96.6795 16.9627 97.3467 17.1964 97.991 17.2438C98.6702 17.2918 99.3719 17.209 99.9998 16.9371V15.1394C99.5182 15.461 98.8534 15.5886 98.3289 15.296C98.0163 15.1238 97.8945 14.7549 97.8543 14.4218C97.7878 13.8568 97.83 13.2872 97.8182 12.7205C97.8176 11.697 97.8202 10.6737 97.8171 9.65047C98.5448 9.6533 99.2726 9.63156 100 9.66134Z" fill="#434343"/>
<path fill-rule="evenodd" clip-rule="evenodd" d="M0 0V10.1342H10.1579C10.1586 6.75615 10.1579 3.37807 10.1586 0H0Z" fill="#F25022"/>
<path fill-rule="evenodd" clip-rule="evenodd" d="M0 11.1683V21.3032H10.1586C10.1586 17.9251 10.1592 14.5477 10.1586 11.1696C6.77245 11.1679 3.38633 11.1696 0 11.1683Z" fill="#02A4EF"/>
<path fill-rule="evenodd" clip-rule="evenodd" d="M11.1966 11.1696C11.1953 14.5471 11.1966 17.9251 11.196 21.3032H21.3546V11.169C17.9682 11.169 14.5821 11.1683 11.1966 11.1696Z" fill="#FFB902"/>
<path fill-rule="evenodd" clip-rule="evenodd" d="M11.196 0C11.196 3.37807 11.1953 6.75615 11.1966 10.1342C14.5821 10.1342 17.9682 10.1336 21.3539 10.1342C21.3552 6.75615 21.3545 3.37807 21.3545 0H11.196Z" fill="#80BA01"/>
</svg>
